<?xml version="1.0" encoding="UTF-8" standalone="no"?>
<!DOCTYPE svg PUBLIC "-//W3C//DTD SVG 1.1//EN" "http://www.w3.org/Graphics/SVG/1.1/DTD/svg11.dtd">
<!-- 由 Microsoft Visio, SVG Export 生成 workflow.svg 页-1 -->
<svg xmlns="http://www.w3.org/2000/svg" xmlns:xlink="http://www.w3.org/1999/xlink" xmlns:ev="http://www.w3.org/2001/xml-events"
		xmlns:v="http://schemas.microsoft.com/visio/2003/SVGExtensions/" width="2.83857in" height="3.91399in"
		viewBox="0 0 204.377 281.807" xml:space="preserve" color-interpolation-filters="sRGB" class="st8">
	<v:documentProperties v:langID="2052" v:metric="true" v:viewMarkup="false"/>

	<style type="text/css">
	<![CDATA[
		.st1 {fill:#ffffff;stroke:#000000;stroke-linecap:round;stroke-linejoin:round;stroke-width:1}
		.st2 {fill:#000000;font-family:宋体;font-size:0.833336em;font-weight:bold}
		.st3 {marker-start:url(#mrkr2-13);stroke:#000000;stroke-linecap:round;stroke-linejoin:round;stroke-width:0.75}
		.st4 {fill:#000000;fill-opacity:1;stroke:#000000;stroke-opacity:1;stroke-width:0.22935779816514}
		.st5 {fill:#ffffff;stroke:none;stroke-linecap:butt;stroke-width:7.2}
		.st6 {fill:#000000;font-family:宋体;font-size:0.666664em;font-weight:bold}
		.st7 {marker-end:url(#mrkr2-27);stroke:#000000;stroke-linecap:round;stroke-linejoin:round;stroke-width:0.75}
		.st8 {fill:none;fill-rule:evenodd;font-size:12px;overflow:visible;stroke-linecap:square;stroke-miterlimit:3}
	]]>
	</style>

	<defs id="Markers">
		<g id="lend2">
			<path d="M 1 1 L 0 0 L 1 -1 L 1 1 " style="stroke:none"/>
		</g>
		<marker id="mrkr2-13" class="st4" v:arrowType="2" v:arrowSize="2" v:setback="3.88" refX="3.88" orient="auto"
				markerUnits="strokeWidth" overflow="visible">
			<use xlink:href="#lend2" transform="scale(4.36) "/>
		</marker>
		<marker id="mrkr2-27" class="st4" v:arrowType="2" v:arrowSize="2" v:setback="4.36" refX="-4.36" orient="auto"
				markerUnits="strokeWidth" overflow="visible">
			<use xlink:href="#lend2" transform="scale(-4.36,-4.36) "/>
		</marker>
	</defs>
	<g v:mID="0" v:index="1" v:groupContext="foregroundPage">
		<title>页-1</title>
		<v:pageProperties v:drawingScale="0.0393701" v:pageScale="0.0393701" v:drawingUnits="24" v:shadowOffsetX="8.50394"
				v:shadowOffsetY="-8.50394"/>
		<v:layer v:name="连接线" v:index="0"/>
		<g id="shape3-1" v:mID="3" v:groupContext="shape" transform="translate(53.811,-163.846)">
			<title>矩形.3</title>
			<desc>本地库</desc>
			<v:userDefs>
				<v:ud v:nameU="visVersion" v:val="VT0(15):26"/>
			</v:userDefs>
			<v:textBlock v:margins="rect(4,4,4,4)" v:tabSpace="42.5197"/>
			<v:textRect cx="47.4803" cy="263.913" width="94.97" height="35.7874"/>
			<rect x="0" y="246.02" width="94.9606" height="35.7874" class="st1"/>
			<text x="32.42" y="266.91" class="st2" v:langID="2052"><v:paragraph v:horizAlign="1"/><v:tabList/>本地库</text>		</g>
		<g id="shape4-4" v:mID="4" v:groupContext="shape" transform="translate(53.811,-245.52)">
			<title>矩形.4</title>
			<desc>远程库</desc>
			<v:userDefs>
				<v:ud v:nameU="visVersion" v:val="VT0(15):26"/>
			</v:userDefs>
			<v:textBlock v:margins="rect(4,4,4,4)" v:tabSpace="42.5197"/>
			<v:textRect cx="47.4803" cy="263.913" width="94.97" height="35.7874"/>
			<rect x="0" y="246.02" width="94.9606" height="35.7874" class="st1"/>
			<text x="32.42" y="266.91" class="st2" v:langID="2052"><v:paragraph v:horizAlign="1"/><v:tabList/>远程库</text>		</g>
		<g id="shape14-7" v:mID="14" v:groupContext="shape" v:layerMember="0" transform="translate(46.7243,-174.654)">
			<title>动态连接线.14</title>
		</g>
		<g id="shape19-8" v:mID="19" v:groupContext="shape" v:layerMember="0" transform="translate(141.685,-192.193)">
			<title>动态连接线.19</title>
			<desc>git pull</desc>
			<v:textBlock v:margins="rect(4,4,4,4)" v:tabSpace="42.5197"/>
			<v:textRect cx="30.4724" cy="246.197" width="44.29" height="17.6036"/>
			<path d="M10 281.81 L10.36 281.81 L18.78 281.81 A11.6929 11.6929 -180 0 0 30.47 270.11 L30.47 222.28 A11.6929 11.6929
						 -180 0 0 18.78 210.59 L7.09 210.59" class="st3"/>
			<rect v:rectContext="textBkgnd" x="14.3479" y="241.397" width="32.2493" height="9.59985" class="st5"/>
			<text x="14.35" y="248.6" class="st6" v:langID="2052"><v:paragraph v:horizAlign="1"/><v:tabList/>git pull</text>		</g>
		<g id="shape28-16" v:mID="28" v:groupContext="shape" transform="translate(53.811,-82.1732)">
			<title>矩形.28</title>
			<desc>暂存区</desc>
			<v:userDefs>
				<v:ud v:nameU="visVersion" v:val="VT0(15):26"/>
			</v:userDefs>
			<v:textBlock v:margins="rect(4,4,4,4)" v:tabSpace="42.5197"/>
			<v:textRect cx="47.4803" cy="263.913" width="94.97" height="35.7874"/>
			<rect x="0" y="246.02" width="94.9606" height="35.7874" class="st1"/>
			<text x="32.42" y="266.91" class="st2" v:langID="2052"><v:paragraph v:horizAlign="1"/><v:tabList/>暂存区</text>		</g>
		<g id="shape29-19" v:mID="29" v:groupContext="shape" transform="translate(53.811,-0.5)">
			<title>矩形.29</title>
			<desc>工作区</desc>
			<v:userDefs>
				<v:ud v:nameU="visVersion" v:val="VT0(15):26"/>
			</v:userDefs>
			<v:textBlock v:margins="rect(4,4,4,4)" v:tabSpace="42.5197"/>
			<v:textRect cx="47.4803" cy="263.913" width="94.97" height="35.7874"/>
			<rect x="0" y="246.02" width="94.9606" height="35.7874" class="st1"/>
			<text x="32.42" y="266.91" class="st2" v:langID="2052"><v:paragraph v:horizAlign="1"/><v:tabList/>工作区</text>		</g>
		<g id="shape31-22" v:mID="31" v:groupContext="shape" v:layerMember="0" transform="translate(46.7243,-191.909)">
			<title>动态连接线.31</title>
			<desc>git push</desc>
			<v:textBlock v:margins="rect(4,4,4,4)" v:tabSpace="42.5197"/>
			<v:textRect cx="-20.1378" cy="246.055" width="48.32" height="17.6036"/>
			<path d="M7.09 281.81 L-6.53 281.81 A13.6122 13.6122 0 0 1 -20.14 268.19 L-20.14 223.92 A13.6122 13.6122 0 0 1 -6.53
						 210.3 L3.82 210.3" class="st7"/>
			<rect v:rectContext="textBkgnd" x="-36.2625" y="241.255" width="32.2493" height="9.59985" class="st5"/>
			<text x="-36.26" y="248.46" class="st6" v:langID="2052"><v:paragraph v:horizAlign="1"/><v:tabList/>git push  </text>		</g>
		<g id="shape32-30" v:mID="32" v:groupContext="shape" v:layerMember="0" transform="translate(60.8976,-105.736)">
			<title>动态连接线.32</title>
			<desc>git commit</desc>
			<v:textBlock v:margins="rect(4,4,4,4)" v:tabSpace="42.5197"/>
			<v:textRect cx="-34.7244" cy="248.5" width="52.35" height="17.6036"/>
			<path d="M-7.09 281.81 L-20.91 281.81 A13.8189 13.8189 0 0 1 -34.72 267.99 L-34.72 229.01 A13.8189 13.8189 0 0 1 -20.91
						 215.19 L-10.36 215.19" class="st7"/>
			<rect v:rectContext="textBkgnd" x="-54.8801" y="243.7" width="40.3116" height="9.59985" class="st5"/>
			<text x="-54.88" y="250.9" class="st6" v:langID="2052"><v:paragraph v:horizAlign="1"/><v:tabList/>git commit</text>		</g>
		<g id="shape35-37" v:mID="35" v:groupContext="shape" v:layerMember="0" transform="translate(155.858,-105.736)">
			<title>动态连接线.35</title>
			<desc>git reset</desc>
			<v:textBlock v:margins="rect(4,4,4,4)" v:tabSpace="42.5197"/>
			<v:textRect cx="16.2992" cy="248.5" width="48.32" height="17.6036"/>
			<path d="M-4.18 281.81 L-3.82 281.81 L4.61 281.81 A11.6929 11.6929 -180 0 0 16.3 270.11 L16.3 226.89 A11.6929 11.6929
						 -180 0 0 4.61 215.19 L-7.09 215.19" class="st3"/>
			<rect v:rectContext="textBkgnd" x="-1.8409" y="243.7" width="36.2804" height="9.59985" class="st5"/>
			<text x="-1.84" y="250.9" class="st6" v:langID="2052"><v:paragraph v:horizAlign="1"/><v:tabList/>git reset</text>		</g>
		<g id="shape36-44" v:mID="36" v:groupContext="shape" v:layerMember="0" transform="translate(60.8976,-18.3937)">
			<title>动态连接线.36</title>
			<desc>git add</desc>
			<v:textBlock v:margins="rect(4,4,4,4)" v:tabSpace="42.5197"/>
			<v:textRect cx="-34.7244" cy="246.197" width="40.26" height="17.6036"/>
			<path d="M-7.09 281.81 L-20.91 281.81 A13.8189 13.8189 0 0 1 -34.72 267.99 L-34.72 224.41 A13.8189 13.8189 0 0 1 -20.91
						 210.59 L-10.36 210.59" class="st7"/>
			<rect v:rectContext="textBkgnd" x="-48.8334" y="241.397" width="28.2181" height="9.59985" class="st5"/>
			<text x="-48.83" y="248.6" class="st6" v:langID="2057"><v:paragraph v:horizAlign="1"/><v:tabList/>git add</text>		</g>
		<g id="shape37-51" v:mID="37" v:groupContext="shape" v:layerMember="0" transform="translate(155.858,-18.3937)">
			<title>动态连接线.37</title>
			<desc>git checkout</desc>
			<v:textBlock v:margins="rect(4,4,4,4)" v:tabSpace="42.5197"/>
			<v:textRect cx="16.2992" cy="246.356" width="64.44" height="17.6036"/>
			<path d="M-4.18 281.81 L-3.82 281.81 L4.61 281.81 A11.6929 11.6929 -180 0 0 16.3 270.11 L16.3 222.6 A11.6929 11.6929
						 -180 0 0 4.61 210.91 L-7.09 210.91" class="st3"/>
			<rect v:rectContext="textBkgnd" x="-7.88777" y="241.557" width="48.3739" height="9.59985" class="st5"/>
			<text x="-7.89" y="248.76" class="st6" v:langID="2052"><v:paragraph v:horizAlign="1"/><v:tabList/>git checkout  </text>		</g>
	</g>
</svg>
